<svg width="154" height="169" viewBox="0 0 154 169" fill="none" xmlns="http://www.w3.org/2000/svg">
<path d="M72.4315 0H82.4435L86.4484 0.364075L92.2736 1.27426L97.7347 2.54853L102.468 4.00483L107.201 5.82521L111.57 7.82762L115.392 9.83004L119.215 12.1965L122.674 14.563L125.951 17.1115L127.953 18.9319L129.409 20.2062L132.504 23.1188L133.778 24.5751L135.963 26.9416L137.965 29.4901L139.785 31.8566L142.698 36.2255L144.882 40.0483L147.249 44.7813L149.251 49.5143L151.072 55.1574L152.346 60.2545L153.438 66.2617L153.984 72.0869V80.4607L153.62 84.8296L152.892 89.9266L151.436 96.48L149.98 101.213L148.341 105.582L146.703 109.223L145.247 112.135L143.79 114.866L141.424 118.689L139.239 121.783L136.691 125.06L134.688 127.426L133.05 129.065L131.776 130.521L130.319 131.977L128.863 133.252L126.679 135.254L123.584 137.621L120.671 139.805L117.213 141.989L113.39 144.174L109.021 146.358L104.47 148.179L97.9167 150.363L94.8221 151.091L94.458 151.273L96.8245 155.46L99.3731 160.011L101.922 164.562L104.288 168.749L103.924 168.931L95.5503 165.654L86.6304 162.196L77.7106 158.737L68.7907 155.278L61.3272 152.366L52.4073 148.907L48.4025 147.269L44.0336 145.266L39.6647 142.9L36.388 140.897L32.9293 138.531L29.8346 136.164L28.0143 134.708L25.6478 132.523L23.4633 130.521L21.0968 128.155L19.8226 126.698L17.8201 124.514L15.0896 120.873L12.7231 117.414L11.2668 115.048L8.90029 110.679L6.71583 106.128L5.07749 101.759L3.62119 97.0261L2.16489 90.8368L1.43674 86.2859L1.07266 82.6451L0.890625 79.5505V74.6355L1.2547 68.6282L1.98285 63.3491L3.07508 58.07L4.53138 52.973L5.80564 49.3322L7.62602 44.9633L9.99251 40.0483L12.359 36.0435L14.5435 32.7668L16.3638 30.2183L18.7303 27.3057L20.5507 25.3032L21.825 23.8469L25.8298 19.8421L27.2861 18.5678L29.6526 16.5654L33.2933 13.8349L36.0239 12.0145L39.6647 9.83004L42.9413 8.00966L46.036 6.55336L50.951 4.55094L56.5942 2.73057L61.6912 1.4563L66.9703 0.546113L72.4315 0Z" fill="#F43F5E"/>
<path d="M72.4315 0H82.4435L86.4484 0.364075L92.2736 1.27426L97.7347 2.54853L102.468 4.00483L107.201 5.82521L111.57 7.82762L115.392 9.83004L119.215 12.1965L122.674 14.563L125.951 17.1115L127.953 18.9319L129.409 20.2062L132.504 23.1188L133.778 24.5751L135.963 26.9416L137.965 29.4901L139.785 31.8566L142.698 36.2255L144.882 40.0483L147.249 44.7813L149.251 49.5143L151.072 55.1574L152.346 60.2545L153.438 66.2617L153.984 72.0869V80.4607L153.62 84.8296L152.892 89.9266L151.436 96.48L149.98 101.213L148.341 105.582L146.703 109.223L145.247 112.135L143.79 114.866L141.424 118.689L139.239 121.783L136.691 125.06L134.688 127.426L133.05 129.065L131.776 130.521L130.319 131.977L128.863 133.252L126.679 135.254L123.584 137.621L120.671 139.805L117.213 141.989L113.39 144.174L109.021 146.358L104.47 148.179L97.9167 150.363L94.8221 151.091L94.458 151.273L96.8245 155.46L99.3731 160.011L101.922 164.562L104.288 168.749L103.924 168.931L95.5503 165.654L86.6304 162.196L77.7106 158.737L68.7907 155.278L61.3272 152.366L52.4073 148.907L48.4025 147.269L44.0336 145.266L39.6647 142.9L36.388 140.897L32.9293 138.531L29.8346 136.164L28.0143 134.708L25.6478 132.523L23.4633 130.521L21.0968 128.155L19.8226 126.698L17.8201 124.514L15.0896 120.873L12.7231 117.414L11.2668 115.048L8.90029 110.679L6.71583 106.128L5.07749 101.759L3.62119 97.0261L2.16489 90.8368L1.43674 86.2859L1.07266 82.6451L0.890625 79.5505V74.6355L1.2547 68.6282L1.98285 63.3491L3.07508 58.07L4.53138 52.973L5.80564 49.3322L7.62602 44.9633L9.99251 40.0483L12.359 36.0435L14.5435 32.7668L16.3638 30.2183L18.7303 27.3057L20.5507 25.3032L21.825 23.8469L25.8298 19.8421L27.2861 18.5678L29.6526 16.5654L33.2933 13.8349L36.0239 12.0145L39.6647 9.83004L42.9413 8.00966L46.036 6.55336L50.951 4.55094L56.5942 2.73057L61.6912 1.4563L66.9703 0.546113L72.4315 0ZM70.429 4.36891L65.15 4.91502L59.6888 6.00725L54.4097 7.46355L49.6767 9.10189L45.4899 10.9223L42.0312 12.7426L38.0263 15.1091L35.2958 16.9295L32.3832 19.114L30.5628 20.5703L28.5604 22.3906L27.1041 23.6649L23.2813 27.4877L21.6429 29.4901L19.8226 31.6746L17.6381 34.7692L15.8177 37.4998L13.9973 40.5944L11.8129 44.7813L9.4464 50.4245L8.35417 53.7011L7.26195 57.5239L6.16972 62.803L5.44157 68.4462L5.25953 70.9947V78.4583L5.62361 83.0092L6.89787 90.2907L7.80806 93.9315L9.08232 97.7543L9.62844 99.3926L11.4488 103.762L13.4512 107.948L15.6357 111.771L17.4561 114.502L19.2764 117.05L21.2789 119.599L22.9172 121.419L24.1915 122.875L28.9244 127.608L30.9269 129.247L33.6574 131.431L37.1161 133.798L40.9389 136.164L46.218 138.895L50.5869 140.715L54.7738 142.171L57.3223 142.9L61.8733 143.992L67.6985 144.902L71.5213 145.266H79.5309L85.3561 144.72L91.3634 143.628L94.094 142.9L100.647 140.715L104.288 139.259L108.839 137.074L112.48 135.072L115.756 132.888L118.487 130.885L121.036 128.883L123.766 126.516L127.953 122.329L129.591 120.327L131.048 118.689L133.232 115.776L135.052 113.045L136.691 110.315L138.511 107.038L140.514 102.851L142.334 98.1183L143.608 94.2955L144.518 90.8368L145.429 86.1039L145.975 82.2811L146.157 79.7325V68.9923L145.429 63.3491L144.882 60.2545L144.154 57.1599L143.062 53.5191L141.788 49.6963L139.603 44.5992L137.783 41.1405L135.781 37.6818L134.142 35.1333L132.14 32.4027L130.137 29.8542L127.953 27.3057L122.674 22.0266L120.671 20.3882L117.759 18.0217L113.39 15.1091L110.659 13.4708L105.744 10.9223L100.647 8.73781L95.3682 6.91743L90.9993 5.82521L86.8124 5.09706L86.2663 4.91502L80.2591 4.36891H70.429Z" fill="#F43F5E"/>
<path d="M48.2205 46.0555H53.8636L56.7763 46.6017L58.5966 47.1478L61.5092 48.6041L63.3296 50.0604L64.2398 50.7885L65.5141 52.2448L67.5165 55.1574L68.9728 58.07L70.247 62.0749L70.7932 64.2593L71.5213 70.0845V79.0044L70.7932 85.1937L70.065 88.8344L68.4267 93.5674L66.9704 96.662L65.6961 98.6644L63.8757 101.031L61.8733 103.215L59.5068 105.036L56.9583 106.492L54.7738 107.402L53.4996 107.948L49.4947 108.677H42.5773L39.6647 107.948L37.6623 107.22L35.1138 105.764L32.3832 103.215L31.291 101.759L29.8347 99.3926L28.3784 96.298L27.2861 93.3854L26.3759 89.5626L26.0119 86.65L25.8298 83.5553V74.9995L26.74 68.2641L27.4682 65.7156L28.0143 63.7132L28.5604 62.2569L30.0167 58.9802L32.0191 55.7035L33.6575 53.7011L35.2958 51.8807L37.1162 50.4244L39.6647 48.7861L42.7593 47.3298L45.854 46.4196L48.2205 46.0555Z" fill="#FFFEFE"/>
<path d="M124.13 38.9561H125.04L123.766 40.9585L120.854 45.5094L118.669 48.7861L115.21 54.0652L111.024 60.4365L109.203 63.1671L109.385 64.2593L112.844 71.5408L115.392 77.0019L118.487 83.5553L121.036 89.0164L124.312 95.9339L125.769 99.0285V99.3926L121.946 99.7567L117.759 100.303L110.841 101.031H108.839L105.38 92.2931L102.468 84.6475L99.7372 77.7301L99.5551 77.5481L97.5527 80.6427L95.5503 83.7373L93.1838 87.3781L92.8197 87.9242L92.6377 103.033L81.7154 104.126L80.4412 104.308H78.9849V43.8711L84.9921 43.1429L91.5455 42.4148H92.6377L92.8197 64.8054L95.0042 60.9826L97.9168 56.0676L100.647 51.3346L103.742 46.0555L106.291 41.6866L106.837 40.7764L117.213 39.6842L124.13 38.9561Z" fill="#FFFEFE"/>
<path d="M48.0384 60.2545H50.587L52.7714 60.9827L54.2277 62.0749L55.502 63.5312L56.2301 64.8055L56.9583 67.172L57.5044 69.1744L57.8685 72.269V80.0966L57.5044 83.0092L56.9583 86.468L55.502 90.1087L54.2277 91.9291L52.5894 93.3854L50.587 94.2956L49.4947 94.6596H46.4001L44.7618 94.1135L43.1234 93.0213L41.8492 91.565L40.939 89.9267L40.0288 86.832L39.4827 81.917V73.9073L39.8467 70.8127L40.7569 67.354L42.2132 64.4414L43.3055 62.9851L44.9438 61.5288L47.1283 60.4366L48.0384 60.2545Z" fill="#F43F5E"/>
</svg>
