<svg width="50" height="50" viewBox="0 0 50 50" fill="none" xmlns="http://www.w3.org/2000/svg">
<circle cx="25" cy="25" r="25" fill="#3FCE73"/>
<g filter="url(#filter0_d_166_6931)">
<path fill-rule="evenodd" clip-rule="evenodd" d="M29.8301 37.3186L31.4076 32.1635L37.8304 16.7405C37.8304 16.7405 38.2083 15.5055 36.9357 14.9725C35.6631 14.4395 35.0168 15.5621 35.0168 15.5621L32.5345 21.489L31.9418 21.2407L35.5164 12.706C35.7149 12.2319 35.6076 11.4903 34.4222 10.9938C33.4739 10.5966 32.9389 11.2086 32.79 11.5642L29.1506 19.6185L29.1768 32.6461L29.8301 37.3186ZM29.1478 18.2643L32.9724 9.13262C33.0221 9.01408 33.5185 7.82871 31.859 7.13366C30.5551 6.58754 30.009 7.89145 30.009 7.89145L27.6214 13.592C28.6518 13.806 29.141 14.8544 29.141 14.8544L29.1478 18.2643ZM26.9406 13.5542L28.622 9.53981C28.622 9.53981 28.8196 8.64729 27.6343 8.15082C26.4489 7.65435 25.8156 8.92173 25.8156 8.92173L24.6497 11.5071C25.4433 12.1981 25.435 13.5542 25.435 13.5542H26.9406Z" fill="white"/>
<path d="M14.1745 31.9317L13.4034 39H28.9536L28.3111 32.5743L28.2771 15.8675C28.2771 15.8675 28.1486 14.5823 26.7689 14.5823C25.3892 14.5823 25.2267 15.8675 25.2267 15.8675V22.2932H24.5842V13.0401C24.5842 12.5261 24.1986 11.8835 22.9135 11.8835C21.8854 11.8835 21.6283 12.6546 21.6283 13.0401L21.3713 22.2932H20.8572V10.7269C20.8572 10.5984 20.8572 9.31323 19.058 9.31323C17.6444 9.31323 17.6444 10.7269 17.6444 10.7269V22.2932H17.0018V12.7831C17.0018 12.7831 16.8394 11.8835 15.5542 11.8835C14.2691 11.8835 14.1745 13.2972 14.1745 13.2972L13.9175 22.8072L12.1183 20.8795C11.7756 20.6225 10.8332 20.2626 9.80505 20.8795C8.77694 21.4964 8.94829 22.7644 9.16248 23.3213L14.1745 31.9317Z" fill="white"/>
</g>
<defs>
<filter id="filter0_d_166_6931" x="7" y="7" width="36.8828" height="40" filterUnits="userSpaceOnUse" color-interpolation-filters="sRGB">
<feFlood flood-opacity="0" result="BackgroundImageFix"/>
<feColorMatrix in="SourceAlpha" type="matrix" values="0 0 0 0 0 0 0 0 0 0 0 0 0 0 0 0 0 0 127 0" result="hardAlpha"/>
<feOffset dx="2" dy="4"/>
<feGaussianBlur stdDeviation="2"/>
<feComposite in2="hardAlpha" operator="out"/>
<feColorMatrix type="matrix" values="0 0 0 0 0 0 0 0 0 0 0 0 0 0 0 0 0 0 0.25 0"/>
<feBlend mode="normal" in2="BackgroundImageFix" result="effect1_dropShadow_166_6931"/>
<feBlend mode="normal" in="SourceGraphic" in2="effect1_dropShadow_166_6931" result="shape"/>
</filter>
</defs>
</svg>
