<svg width="50" height="50" viewBox="0 0 50 50" fill="none" xmlns="http://www.w3.org/2000/svg">
<circle cx="25" cy="25" r="25" fill="#F97316"/>
<path fill-rule="evenodd" clip-rule="evenodd" d="M41.1998 41.1999L31.5994 41.1999L31.5994 39.0471L39.0471 39.0471L39.0471 31.5995L41.1998 31.5995L41.1998 41.1999Z" fill="white"/>
<path fill-rule="evenodd" clip-rule="evenodd" d="M9.80019 41.1999L19.4006 41.1999L19.4006 39.0471L11.9529 39.0471L11.9529 31.5995L9.80019 31.5995L9.80019 41.1999Z" fill="white"/>
<path fill-rule="evenodd" clip-rule="evenodd" d="M9.8002 9.80015L19.4006 9.80015L19.4006 11.9529L11.9529 11.9529L11.9529 19.4005L9.80019 19.4005L9.8002 9.80015Z" fill="white"/>
<path fill-rule="evenodd" clip-rule="evenodd" d="M41.1998 9.80015L31.5994 9.80015L31.5994 11.9529L39.0471 11.9529L39.0471 19.4005L41.1998 19.4005L41.1998 9.80015Z" fill="white"/>
<rect x="15.5217" y="15.5217" width="20.0871" height="20.0871" fill="#D9D9D9"/>
</svg>
