<svg width="50" height="50" viewBox="0 0 50 50" fill="none" xmlns="http://www.w3.org/2000/svg">
<circle cx="25" cy="25" r="25" fill="#F97316"/>
<path fill-rule="evenodd" clip-rule="evenodd" d="M29.9154 28.1799L13.2101 12L11.3127 14.1944L30.1812 32.4694L37.2553 23.6008L37.6647 28.7305C37.7274 29.5165 38.3924 30.1494 39.2019 30.0771C40.0069 30.0051 40.5576 29.2701 40.4951 28.487L39.7982 19.754C39.7355 18.968 39.0706 18.335 38.2611 18.4074L30.0099 19.145C29.2048 19.2169 28.6541 19.952 28.7166 20.735C28.7793 21.521 29.4443 22.154 30.2537 22.0817L35.1272 21.646L29.9154 28.1799Z" fill="white"/>
<path fill-rule="evenodd" clip-rule="evenodd" d="M43 38.7273H6V35.7273H43V38.7273Z" fill="white"/>
</svg>
