<svg width="116" height="17" viewBox="0 0 116 17" fill="none" xmlns="http://www.w3.org/2000/svg">
<path d="M19.6074 5.68555C19.5938 7.64062 21.002 9.78711 22.7656 10.6211L22.1504 11.4688C20.7832 10.8057 19.6279 9.35645 19.0879 7.70898C18.5273 9.5 17.3037 11.0723 15.9434 11.7695L15.2871 10.9219C17.0371 10.0742 18.541 7.76367 18.5547 5.68555V4.09961H15.7246V3.21094H22.3418V4.09961H19.6074V5.68555ZM24.8984 1.95312V6.875H26.9355V7.79102H24.8984V14.1074H23.832V1.95312H24.8984ZM38.6797 7.96875V8.83008H27.5918V7.96875H32.6094V6.54688H29V2.52734H37.2988V3.38867H30.0527V5.67188H37.3809V6.54688H33.6484V7.96875H38.6797ZM33.1289 9.71875C35.7402 9.71875 37.2988 10.5117 37.3125 11.9062C37.2988 13.3145 35.7402 14.0938 33.1289 14.1074C30.5039 14.0938 28.9316 13.3145 28.9316 11.9062C28.9316 10.5117 30.5039 9.71875 33.1289 9.71875ZM33.1289 10.5664C31.1738 10.5664 30.0117 11.0723 30.0254 11.9062C30.0117 12.7539 31.1738 13.2461 33.1289 13.2461C35.0566 13.2461 36.2324 12.7539 36.2324 11.9062C36.2324 11.0723 35.0566 10.5664 33.1289 10.5664ZM46.7461 3.00586V3.8125H44.0391C44.0596 4.81055 45.3652 5.61719 47.0332 5.87695L46.6504 6.66992C45.1943 6.42383 44.0459 5.78809 43.5332 4.89258C43.0137 5.83594 41.8584 6.51953 40.3887 6.79297L40.0059 6.01367C41.6738 5.72656 42.9658 4.86523 42.9863 3.8125H40.293V3.00586H42.9863V1.92578H44.0391V3.00586H46.7461ZM44.0391 6.23242V7.54492C45.1602 7.49023 46.2881 7.40137 47.334 7.25781L47.4023 8.00977C44.832 8.44727 41.9609 8.47461 39.8145 8.46094L39.6777 7.62695C40.6553 7.62695 41.7969 7.62012 42.9863 7.58594V6.23242H44.0391ZM49.1797 9.4043V12.0156H42.3574V13.1504H49.6445V13.9707H41.291V11.2363H48.1133V10.2109H41.2637V9.4043H49.1797ZM49.1797 1.95312V4.89258H50.998V5.78125H49.1797V8.87109H48.0996V1.95312H49.1797ZM55.1406 2.69141C56.166 2.68457 57.041 3.06738 57.6016 3.7168H60.7871V1.95312H61.8672V9.1582H60.7871V7.42188H57.6152C57.041 8.07129 56.166 8.4541 55.1406 8.44727C53.3223 8.46094 51.9824 7.27148 51.9824 5.57617C51.9824 3.86719 53.3223 2.67773 55.1406 2.69141ZM55.1406 3.62109C53.8965 3.60742 53.0078 4.42773 53.0078 5.57617C53.0078 6.71094 53.8965 7.53125 55.1406 7.53125C56.3438 7.53125 57.2461 6.71094 57.2461 5.57617C57.2461 4.42773 56.3438 3.60742 55.1406 3.62109ZM57.834 9.44531C60.3496 9.44531 61.9082 10.293 61.9082 11.7559C61.9082 13.2324 60.3496 14.0801 57.834 14.0801C55.3047 14.0801 53.7598 13.2324 53.7598 11.7559C53.7598 10.293 55.3047 9.44531 57.834 9.44531ZM57.834 10.2793C55.9746 10.2793 54.8125 10.8398 54.8125 11.7559C54.8125 12.6719 55.9746 13.2188 57.834 13.2188C59.707 13.2188 60.8555 12.6719 60.8555 11.7559C60.8555 10.8398 59.707 10.2793 57.834 10.2793ZM58.1211 4.5918C58.2236 4.89258 58.2852 5.2207 58.2852 5.57617C58.2852 5.91797 58.2236 6.23926 58.1211 6.5332H60.7871V4.5918H58.1211ZM74.9648 7.64062V8.5293H69.9473V9.82812C72.2441 9.92383 73.5977 10.6758 73.6113 11.9609C73.5977 13.3145 72.0391 14.0801 69.4277 14.0801C66.7891 14.0801 65.2305 13.3145 65.2305 11.9609C65.2305 10.6758 66.5771 9.92383 68.8945 9.82812V8.5293H63.8906V7.64062H74.9648ZM69.4277 10.6484C67.4727 10.6621 66.3105 11.1406 66.3242 11.9609C66.3105 12.7676 67.4727 13.2461 69.4277 13.2461C71.3555 13.2461 72.5312 12.7676 72.5312 11.9609C72.5312 11.1406 71.3555 10.6621 69.4277 10.6484ZM73.9805 2.52734V3.40234H70.125C70.1934 4.76953 72.2031 5.8291 74.3496 6.05469L73.9531 6.90234C71.9639 6.66309 70.0977 5.77441 69.4277 4.41406C68.7646 5.77441 66.9053 6.66309 64.9023 6.90234L64.5195 6.05469C66.625 5.8291 68.6484 4.76953 68.7305 3.40234H64.9023V2.52734H73.9805ZM86.0254 1.95312V8.47461H84.959V1.95312H86.0254ZM79.2168 9.08984V10.5664H84.959V9.08984H86.0254V13.9434H78.1504V9.08984H79.2168ZM79.2168 13.0684H84.959V11.4277H79.2168V13.0684ZM79.4629 2.55469C81.3086 2.54102 82.6484 3.67578 82.6484 5.34375C82.6484 6.99805 81.3086 8.13281 79.4629 8.13281C77.6172 8.13281 76.2773 6.99805 76.2773 5.34375C76.2773 3.67578 77.6172 2.54102 79.4629 2.55469ZM79.4629 3.45703C78.2188 3.44336 77.3164 4.23633 77.3301 5.34375C77.3164 6.45117 78.2188 7.24414 79.4629 7.24414C80.6934 7.24414 81.5957 6.45117 81.5957 5.34375C81.5957 4.23633 80.6934 3.44336 79.4629 3.45703ZM98.1113 1.95312V14.1074H97.0449V1.95312H98.1113ZM89.9355 3.15625V10.0469C91.7881 10.04 93.709 9.88965 95.7461 9.45898L95.8965 10.375C93.7363 10.8262 91.8086 10.9766 89.8672 10.9766H88.8828V3.15625H89.9355ZM109.596 1.95312V6.76562H111.633V7.66797H109.596V14.1348H108.529V1.95312H109.596ZM106.396 3.14258V4.03125H101.789V10.1836C103.99 10.1836 105.549 10.0811 107.354 9.74609L107.49 10.6758C105.59 11.0176 103.99 11.0859 101.68 11.0859H100.723V3.14258H106.396ZM113.574 13.082C113.096 13.082 112.686 12.6855 112.699 12.1934C112.686 11.7148 113.096 11.3184 113.574 11.3184C114.053 11.3184 114.449 11.7148 114.449 12.1934C114.449 12.6855 114.053 13.082 113.574 13.082Z" fill="white"/>
<circle cx="4" cy="7" r="4" fill="#F43F5E"/>
</svg>
