<svg width="55" height="52" viewBox="0 0 55 52" fill="none" xmlns="http://www.w3.org/2000/svg">
<circle cx="28" cy="18" r="18" fill="#A8A29E"/>
<g filter="url(#filter0_d_170_8540)">
<path fill-rule="evenodd" clip-rule="evenodd" d="M35.0711 21.7031L28.7072 28.067C28.3166 28.4576 27.6835 28.4576 27.2929 28.067L20.929 21.7031C20.5385 21.3125 20.5385 20.6794 20.929 20.2889C21.3195 19.8983 21.9527 19.8983 22.3432 20.2889L27.0001 24.9457L27.0001 7.91992L29.0001 7.91992L29.0001 24.9457L33.6569 20.2889C34.0474 19.8983 34.6806 19.8983 35.0711 20.2889C35.4616 20.6794 35.4616 21.3125 35.0711 21.7031Z" fill="#E7E5E4"/>
</g>
<path d="M3.26172 44.4434C3.26172 45.9766 4.27734 47.5488 5.50781 48.1543L5.03906 48.7695C4.08203 48.2666 3.28125 47.2412 2.90039 46.0352C2.50977 47.3193 1.68945 48.4131 0.712891 48.9355L0.224609 48.3203C1.49414 47.6953 2.5 46.0254 2.50977 44.4434V42.8613H3.26172V44.4434ZM7.07031 42.1094V45.6348H8.52539V46.2988H7.07031V50.791H6.30859V42.1094H7.07031ZM12.1191 43.9746C12.1191 45.1465 13.0469 46.2012 14.3457 46.6113L13.9551 47.2266C12.9443 46.8848 12.1387 46.1719 11.748 45.2539C11.3672 46.2451 10.5518 47.0264 9.52148 47.4023L9.12109 46.7871C10.4199 46.3281 11.3477 45.2051 11.3477 43.9746V43.4668H9.31641V42.8418H14.1211V43.4668H12.1191V43.9746ZM16.1621 42.1191V48.4863H15.4004V42.1191H16.1621ZM16.4355 49.9609V50.6055H10.5566V47.8809H11.3184V49.9609H16.4355ZM26.8652 42.1094V45.5469H28.3203V46.1914H26.8652V50.8105H26.1035V42.1094H26.8652ZM24.5801 42.959V43.5938H21.2891V47.9883C22.8613 47.9883 23.9746 47.915 25.2637 47.6758L25.3613 48.3398C24.0039 48.584 22.8613 48.6328 21.2109 48.6328H20.5273V42.959H24.5801ZM36.7285 46.5234V47.1582H33.2031V48.9355H32.4316V47.1582H28.7793V46.5234H36.7285ZM35.8398 49.9512V50.6055H29.8047V48.0664H30.5762V49.9512H35.8398ZM32.7441 42.334C34.5996 42.3438 35.8008 43.0078 35.8008 44.082C35.8008 45.1562 34.5996 45.8105 32.7441 45.8105C30.8887 45.8105 29.6777 45.1562 29.6777 44.082C29.6777 43.0078 30.8887 42.3438 32.7441 42.334ZM32.7441 42.959C31.3965 42.959 30.4883 43.3887 30.498 44.082C30.4883 44.7559 31.3965 45.1855 32.7441 45.1855C34.0918 45.1855 34.9902 44.7559 34.9902 44.082C34.9902 43.3887 34.0918 42.959 32.7441 42.959ZM45.3809 49.0723V49.7168H37.4316V49.0723H41.0059V47.4316H38.4277V44.7559H43.623V43.3887H38.4082V42.7539H44.375V45.3809H39.1895V46.7969H44.5801V47.4316H41.7578V49.0723H45.3809ZM53.0859 46.2891V46.9238H47.0898V42.9199H52.998V43.5547H47.8516V46.2891H53.0859ZM54.0234 48.9648V49.6094H46.0742V48.9648H54.0234Z" fill="#A8A29E"/>
<defs>
<filter id="filter0_d_170_8540" x="18.636" y="7.91992" width="22.728" height="28.4399" filterUnits="userSpaceOnUse" color-interpolation-filters="sRGB">
<feFlood flood-opacity="0" result="BackgroundImageFix"/>
<feColorMatrix in="SourceAlpha" type="matrix" values="0 0 0 0 0 0 0 0 0 0 0 0 0 0 0 0 0 0 127 0" result="hardAlpha"/>
<feOffset dx="2" dy="4"/>
<feGaussianBlur stdDeviation="2"/>
<feComposite in2="hardAlpha" operator="out"/>
<feColorMatrix type="matrix" values="0 0 0 0 0 0 0 0 0 0 0 0 0 0 0 0 0 0 0.25 0"/>
<feBlend mode="normal" in2="BackgroundImageFix" result="effect1_dropShadow_170_8540"/>
<feBlend mode="normal" in="SourceGraphic" in2="effect1_dropShadow_170_8540" result="shape"/>
</filter>
</defs>
</svg>
