<svg width="90" height="68" viewBox="0 0 90 68" fill="none" xmlns="http://www.w3.org/2000/svg">
<path d="M9.4375 43.7144V49.0464H7.94922V47.0542H6.16797C5.875 48.1733 4.79688 48.9175 3.42578 48.9175C1.79688 48.9175 0.578125 47.8979 0.589844 46.4448C0.578125 45.0269 1.79688 44.019 3.42578 44.019C4.79688 44.019 5.875 44.7515 6.16797 45.8472H7.94922V43.7144H9.4375ZM3.42578 45.2261C2.59375 45.2261 1.99609 45.6948 2.00781 46.4448C1.99609 47.2417 2.59375 47.7104 3.42578 47.7104C4.23438 47.7104 4.82031 47.2417 4.82031 46.4448C4.82031 45.6948 4.23438 45.2261 3.42578 45.2261ZM9.4375 49.5151V52.3979H3.84766V53.0894H9.75391V54.2612H2.34766V51.2964H7.94922V50.6636H2.33594V49.5151H9.4375ZM19.9219 44.1245V44.8511C19.9219 45.5015 19.9219 46.3628 19.7344 47.394H21.082V48.5542H16.9219V49.562H19.875V52.4214H13.9219V53.1479H20.168V54.2964H12.4336V51.4019H18.3984V50.7222H12.4219V49.562H15.4336V48.5542H11.3203V47.394H18.2227C18.3926 46.5444 18.4219 45.8765 18.4336 45.2964H12.5156V44.1245H19.9219ZM28.1914 44.7808V45.6362C28.1797 46.644 28.1797 47.9565 27.8984 49.7261L26.4219 49.6089C26.6621 48.062 26.6855 46.9194 26.7031 45.9761H22.6602V44.7808H28.1914ZM25.5312 47.8394V50.9331C26.5801 50.8921 27.6465 50.8159 28.625 50.687L28.7188 51.8003C26.5273 52.1753 24.1016 52.2104 22.2383 52.1987L22.0977 51.0034C22.6953 50.9976 23.3633 50.9976 24.0547 50.98V47.8394H25.5312ZM30.6406 43.7144V48.0034H32.0938V49.2456H30.6406V54.3784H29.1289V43.7144H30.6406ZM44.8594 43.7144V46.2339H46.2188V47.4761H44.8594V49.9956H43.3594V43.7144H44.8594ZM44.8594 50.3706V52.7612H39.1406V53.312H45.2109V54.3081H37.6406V51.8589H43.3594V51.3667H37.6289V50.3706H44.8594ZM36.2109 48.8472C36.9902 48.853 37.875 48.853 38.8008 48.8237V48.355C37.6348 48.2202 36.9141 47.7339 36.9258 46.9722C36.9141 46.105 37.9453 45.6011 39.5391 45.6011C41.1211 45.6011 42.1406 46.105 42.1523 46.9722C42.1406 47.7339 41.4375 48.2144 40.2891 48.355V48.7769C41.1621 48.7358 42.041 48.6655 42.8672 48.5542L42.9727 49.48C40.6992 49.8667 38.2266 49.8784 36.3633 49.8784L36.2109 48.8472ZM42.5977 44.3823V45.3784H36.4922V44.3823H38.8008V43.6206H40.2891V44.3823H42.5977ZM39.5391 46.5269C38.7773 46.5269 38.3438 46.6675 38.3555 46.9722C38.3438 47.2886 38.7773 47.4526 39.5391 47.4644C40.2891 47.4526 40.7109 47.2886 40.7227 46.9722C40.7109 46.6675 40.2891 46.5269 39.5391 46.5269ZM56.9492 48.7534V49.9253H47.1992V48.7534H51.3477V47.8394H48.3828V44.1831H55.7773V45.3433H49.8711V46.6675H55.8359V47.8394H52.8125V48.7534H56.9492ZM52.0508 50.4644C54.3594 50.4644 55.7539 51.1675 55.7656 52.4331C55.7539 53.6753 54.3594 54.3901 52.0508 54.3901C49.7188 54.3901 48.3125 53.6753 48.3125 52.4331C48.3125 51.1675 49.7188 50.4644 52.0508 50.4644ZM52.0508 51.6011C50.5742 51.6011 49.8242 51.8823 49.8359 52.4331C49.8242 52.9956 50.5742 53.2534 52.0508 53.2534C53.4922 53.2534 54.2539 52.9956 54.2656 52.4331C54.2539 51.8823 53.4922 51.6011 52.0508 51.6011ZM64.1289 44.4292V45.6245H62.0078C62.0195 46.8667 62.7637 48.0679 64.4688 48.5659L63.7539 49.7378C62.5762 49.3804 61.7617 48.6655 61.293 47.7456C60.8184 48.8237 59.9512 49.6792 58.668 50.1011L57.9062 48.9175C59.6758 48.3608 60.4727 46.978 60.4961 45.6245H58.3164V44.4292H64.1289ZM66.5312 43.7144V46.187H67.9727V47.4058H66.5312V50.0425H65.0312V43.7144H66.5312ZM63.0391 50.2534C65.2539 50.2417 66.6367 51.0034 66.6367 52.3042C66.6367 53.605 65.2539 54.3784 63.0391 54.3784C60.7773 54.3784 59.3828 53.605 59.3828 52.3042C59.3828 51.0034 60.7773 50.2417 63.0391 50.2534ZM63.0391 51.4136C61.6328 51.4136 60.8711 51.7065 60.8828 52.3042C60.8711 52.9136 61.6328 53.2183 63.0391 53.2183C64.4219 53.2183 65.1602 52.9136 65.1602 52.3042C65.1602 51.7065 64.4219 51.4136 63.0391 51.4136ZM74.4492 44.5815V45.3901H76.4414V43.7261H77.9297V51.4839H76.4414V48.8706H74.4492V49.7729H69.3867V44.5815H74.4492ZM70.875 45.7651V48.6128H72.9844V45.7651H70.875ZM78.1523 52.9956V54.1909H70.8281V50.7456H72.3398V52.9956H78.1523ZM74.4492 47.687H76.4414V46.5972H74.4492V47.687ZM84.6758 43.8667C87.125 43.8667 88.543 44.5112 88.5547 45.6831C88.543 46.8667 87.125 47.5112 84.6758 47.5112C82.2148 47.5112 80.7852 46.8667 80.7852 45.6831C80.7852 44.5112 82.2148 43.8667 84.6758 43.8667ZM84.6758 44.9565C83.1055 44.9565 82.3438 45.2144 82.3555 45.6831C82.3438 46.2104 83.1055 46.4097 84.6758 46.4097C86.2578 46.4097 87.0078 46.2104 87.0078 45.6831C87.0078 45.2144 86.2578 44.9565 84.6758 44.9565ZM89.5391 48.0151V49.1987H79.8125V48.0151H89.5391ZM88.3555 49.8198V52.5386H82.4141V53.1831H88.6367V54.3081H80.9492V51.4956H86.8789V50.9097H80.9375V49.8198H88.3555ZM14.3457 55.7144V58.3394H15.7871V59.5933H14.3457V62.1479H12.8457V55.7144H14.3457ZM14.3457 62.6167V66.2612H7.37305V62.6167H14.3457ZM8.84961 63.7886V65.0659H12.8691V63.7886H8.84961ZM12.2129 56.6753V57.8589H5.88477V56.6753H8.31055V55.6558H9.79883V56.6753H12.2129ZM9.04883 58.187C10.5957 58.187 11.6738 58.9722 11.6738 60.0972C11.6738 61.2573 10.5957 62.0308 9.04883 62.0308C7.47852 62.0308 6.40039 61.2573 6.40039 60.0972C6.40039 58.9722 7.47852 58.187 9.04883 58.187ZM9.04883 59.312C8.33398 59.312 7.85352 59.5933 7.86523 60.0972C7.85352 60.6362 8.33398 60.9292 9.04883 60.9292C9.76367 60.9292 10.2559 60.6362 10.2559 60.0972C10.2559 59.5933 9.76367 59.312 9.04883 59.312ZM19.3809 56.9331C19.3691 59.5933 19.1113 61.9839 17.752 64.0933L16.5918 63.4839C17.6875 61.8257 18.0156 60.2085 18.0918 58.1401H16.9434V56.9331H19.3809ZM21.7715 56.9331C21.7656 57.8706 21.748 58.8022 21.666 59.7104H22.5801V55.9487H23.9863V65.9097H22.5801V60.9175H21.5137C21.2852 62.2241 20.8809 63.478 20.1426 64.6323L19.0059 63.9995C20.1953 62.1831 20.4414 60.3022 20.4941 58.1401H19.6855V56.9331H21.7715ZM26.084 55.7144V66.3784H24.6543V55.7144H26.084ZM40.0449 62.5347V66.3784H38.5449V63.7065H32.416V62.5347H40.0449ZM40.0449 55.7144V62.0659H38.5449V55.7144H40.0449ZM33.6582 57.6245C33.6582 58.4858 33.8398 59.5054 34.4902 60.2729C35.123 59.5112 35.2871 58.5034 35.2871 57.6245V57.6128H34.7012V56.4175H37.7832V57.6128H36.7168V57.6245C36.7168 58.8315 37.0918 60.1206 38.2988 60.7651L37.5254 61.8198C36.7578 61.4155 36.2832 60.7476 36.002 59.9565C35.7383 60.771 35.2754 61.4917 34.4902 61.937C33.7168 61.4976 33.2539 60.7944 32.9902 60.0034C32.6973 60.7769 32.2227 61.4272 31.4668 61.8198L30.6699 60.7651C31.877 60.1089 32.2754 58.8198 32.2754 57.6245V57.6128H31.1035V56.4175H34.2793V57.6128H33.6582V57.6245ZM44.7051 56.4644C46.1465 56.4644 47.2188 57.6538 47.4355 59.5698H49.2871V55.7144H50.7637V66.4019H49.2871V60.7651H47.4473C47.2891 62.8159 46.1934 64.0698 44.7051 64.0698C43.0879 64.0698 41.9277 62.605 41.9395 60.2612C41.9277 57.9409 43.0879 56.4644 44.7051 56.4644ZM44.7051 57.812C43.9082 57.812 43.3574 58.6792 43.3691 60.2612C43.3574 61.855 43.9082 62.7104 44.7051 62.7104C45.5137 62.7104 46.041 61.855 46.041 60.2612C46.041 58.6792 45.5137 57.812 44.7051 57.812ZM62.3613 61.5972V62.7925H58.2129V66.3784H56.7363V62.7925H52.6348V61.5972H62.3613ZM61.4941 56.2769V57.4487H58.3887C58.5352 58.4917 59.7129 59.5405 61.9043 59.8042L61.3652 60.9761C59.4902 60.7241 58.1484 59.9214 57.5098 58.8198C56.8535 59.9214 55.5234 60.7241 53.666 60.9761L53.1152 59.8042C55.2715 59.5405 56.4609 58.4917 56.6309 57.4487H53.5137V56.2769H61.4941ZM66.9277 58.3979C66.9277 60.1206 67.4082 61.9019 68.8613 62.8394L68.0527 63.9995C67.1328 63.4429 66.5469 62.5288 66.2129 61.4331C65.8262 62.6401 65.1875 63.6479 64.2207 64.2339L63.3066 63.1323C64.8887 62.1479 65.4746 60.2729 65.4746 58.4683V56.6284H66.9277V58.3979ZM72.752 55.7144V66.3784H71.3223V55.7144H72.752ZM70.5137 55.8667V65.8862H69.1191V60.5308H67.7363V59.312H69.1191V55.8667H70.5137ZM84.1387 63.9058V65.1362H74.377V63.9058H76.5566V61.2925C75.7305 60.8003 75.2324 60.0444 75.2324 59.1011C75.2324 57.3784 76.9199 56.23 79.2402 56.23C81.5488 56.23 83.248 57.3784 83.2598 59.1011C83.2539 60.021 82.7676 60.771 81.9707 61.269V63.9058H84.1387ZM79.2402 57.4136C77.7168 57.4136 76.709 58.0229 76.709 59.1011C76.709 60.144 77.7168 60.7886 79.2402 60.7886C80.752 60.7886 81.7715 60.144 81.7832 59.1011C81.7715 58.0229 80.752 57.4136 79.2402 57.4136ZM78.0332 63.9058H80.459V61.8315C80.0781 61.9077 79.668 61.9487 79.2402 61.9487C78.8125 61.9487 78.4082 61.9136 78.0332 61.8315V63.9058Z" fill="white"/>
<path fill-rule="evenodd" clip-rule="evenodd" d="M61.8449 38.1452L51.8082 38.1452L51.8082 35.8946L59.5944 35.8946L59.5944 28.1085L61.8449 28.1085L61.8449 38.1452Z" fill="white"/>
<path fill-rule="evenodd" clip-rule="evenodd" d="M29.0183 38.1452L39.055 38.1452L39.055 35.8946L31.2689 35.8946L31.2689 28.1085L29.0183 28.1085L29.0183 38.1452Z" fill="white"/>
<path fill-rule="evenodd" clip-rule="evenodd" d="M29.0183 5.31869L39.055 5.31869L39.055 7.56926L31.2689 7.56925L31.2689 15.3554L29.0183 15.3554L29.0183 5.31869Z" fill="white"/>
<path fill-rule="evenodd" clip-rule="evenodd" d="M61.8449 5.31869L51.8082 5.31869L51.8082 7.56925L59.5944 7.56925L59.5944 15.3554L61.8449 15.3554L61.8449 5.31869Z" fill="white"/>
<path fill-rule="evenodd" clip-rule="evenodd" d="M45.0009 9C43.7435 9 42.5144 9.3728 41.4689 10.0713C40.4235 10.7698 39.6086 11.7627 39.1273 12.9243C38.6461 14.0859 38.5201 15.3641 38.7653 16.5973C39.0104 17.8305 39.6158 18.9633 40.5047 19.8525C41.3937 20.7417 42.5263 21.3474 43.7595 21.5929C44.9926 21.8384 46.2709 21.7128 47.4326 21.2318C48.5944 20.7509 49.5874 19.9363 50.2862 18.891C50.985 17.8457 51.3582 16.6167 51.3585 15.3594C51.3587 14.5243 51.1945 13.6974 50.8751 12.9258C50.5557 12.1543 50.0874 11.4532 49.497 10.8627C48.9066 10.2721 48.2057 9.80369 47.4342 9.48408C46.6627 9.16446 45.8359 9 45.0009 9ZM54.7754 33.4352C54.9299 33.2761 55.0172 33.0536 54.9972 32.8154C54.786 30.3092 53.6413 27.9739 51.7898 26.2718C49.9382 24.5697 47.515 23.6251 45 23.6251C42.485 23.6251 40.0618 24.5697 38.2102 26.2718C36.3587 27.9739 35.214 30.3092 35.0028 32.8154C34.9728 33.1716 35.183 33.4927 35.4985 33.6189C35.5851 33.6771 35.6876 33.7089 35.7936 33.7089H54.312C54.4637 33.7089 54.608 33.6438 54.7084 33.5302C54.7344 33.5008 54.7568 33.4689 54.7754 33.4352Z" fill="#E7E5E4"/>
</svg>
