<svg width="136" height="22" viewBox="0 0 136 22" fill="none" xmlns="http://www.w3.org/2000/svg">
<path d="M112.557 21.8149V17.2323H105.096V13.5965H136V17.2323H128.577V21.8149H124.79V17.2323H116.344V21.8149H112.557ZM105.171 6.13545C105.171 2.68899 108.088 0 120.548 0C132.97 0 135.924 2.68899 135.924 6.13545C135.924 9.77128 132.932 12.3088 120.548 12.3088C108.125 12.3088 105.171 9.77128 105.171 6.13545ZM108.959 6.13545C108.959 7.764 110.019 8.67296 120.548 8.67296C131.039 8.67296 132.137 7.72613 132.137 6.13545C132.137 4.6584 131.001 3.63582 120.548 3.63582C110.057 3.63582 108.959 4.6584 108.959 6.13545Z" fill="#F43F5E"/>
<path d="M95.4435 21.815V0.34087H99.2308V1.09833H103.208V4.69628H99.2308V21.815H95.4435ZM69.7655 4.3933V0.757474H92.8681V21.4362H89.0808V4.3933H69.7655Z" fill="#F43F5E"/>
<path d="M36.2338 5.7946V2.15877H45.3992V0H49.1865V2.15877H58.3518V5.7946H49.1486V7.68825C49.9439 11.0211 52.7466 14.922 59.3365 17.308L58.1245 20.6409C52.7087 18.6715 49.2622 15.528 47.3686 12.3845C45.5128 15.8689 42.0663 19.3532 36.4611 21.3983L35.2491 18.0655C41.8391 15.6795 44.6417 11.4377 45.3992 7.68825V5.7946H36.2338ZM62.5557 21.8149V0.340859H66.343V21.8149H62.5557Z" fill="#F43F5E"/>
<path d="M26.3545 21.815V0.34087H30.1418V1.09833H34.1185V4.69628H30.1418V21.815H26.3545ZM0.676514 4.3933V0.757474H23.7792V21.4362H19.9918V4.3933H0.676514Z" fill="#F43F5E"/>
</svg>
