<svg width="19" height="27" viewBox="0 0 19 27" fill="none" xmlns="http://www.w3.org/2000/svg">
<path fill-rule="evenodd" clip-rule="evenodd" d="M13.7642 15.7316L12.0992 17.3966L13.8977 19.1951L15.2874 17.8053L18.7077 21.2255L13.8977 26.0355L8.08592 20.2238L7.08415 21.2255L8.47392 22.6153L5.0537 26.0355L0.243705 21.2255L4.66569 16.8035L2.79377 14.9316C1.07769 13.3616 0 11.1019 0 8.59129C0 3.84645 3.84645 0 8.59129 0C13.3361 0 17.1826 3.84645 17.1826 8.59129C17.1826 9.91333 16.9491 11.0784 16.3891 12.2368C15.8345 13.3842 14.9742 14.4943 13.7667 15.7291L13.7642 15.7316ZM10.0959 11.1319C9.68971 11.3643 9.21919 11.4972 8.71764 11.4972C7.18255 11.4972 5.93811 10.2527 5.93811 8.71764C5.93811 7.18255 7.18255 5.93811 8.71764 5.93811C10.2527 5.93811 11.4972 7.18255 11.4972 8.71764C11.4972 9.75119 10.9331 10.653 10.0959 11.1319Z" fill="#F43F5E"/>
</svg>
