<svg width="14" height="14" viewBox="0 0 14 14" fill="current" xmlns="http://www.w3.org/2000/svg">
<path d="M6.34375 6.34375H7.65625L8.64062 6.78125L9.51562 7.54688L10.6094 7.98438L11.2656 8.75L11.5938 9.625L11.8125 10.2812L12.25 11.0469V11.2656H14V12.25H0V11.2656H1.75L1.96875 10.6094L2.29688 10.1719L2.625 8.96875L3.0625 8.3125L3.60938 7.875L4.59375 7.4375L5.46875 6.67188L6.34375 6.34375ZM6.67188 8.09375V8.75H7.32812V8.09375H6.67188ZM4.59375 9.73438V10.5H5.25V9.73438H4.59375ZM8.75 9.73438V10.5H9.40625V9.73438H8.75Z" fill="#4ADE80"/>
<path d="M13.0156 2.51562L13.4531 2.625L14 3.9375V6.01562L13.7812 6.34375L12.3594 5.57812H12.1406L11.9219 6.125L12.5781 6.67188L12.7969 7.21875L12.25 7.65625L11.8125 7.4375L11.4844 7.10938H11.2656L11.0469 7.4375L10.3906 7.21875L10.1719 7L10.3906 6.5625L9.51562 6.23438V5.35938H10.2812L11.0469 5.57812L11.1562 4.92188L9.95312 4.26562V3.9375L10.9375 3.17188L11.8125 2.73438L13.0156 2.51562Z" fill="#4ADE80"/>
<path d="M2.625 2.07812H2.95312L3.60938 3.39062L4.59375 3.82812L5.03125 4.59375L4.92188 4.92188L2.95312 5.79688H2.625L2.29688 5.14062L2.40625 4.26562L2.51562 3.60938L2.07812 2.625V2.29688L2.625 2.07812Z" fill="#4ADE80"/>
<path d="M5.14062 5.46875L5.46875 5.57812L5.57812 5.90625L4.375 6.78125L3.82812 7.10938L3.28125 7.21875L2.95312 6.45312L5.14062 5.46875Z" fill="#4ADE80"/>
</svg>
