<svg width="26" height="25" viewBox="0 0 26 25" fill="none" xmlns="http://www.w3.org/2000/svg">
<path d="M17.8247 23.6023H15.148C15.0878 23.6023 15.0281 23.5903 14.9725 23.567C14.9169 23.5436 14.8664 23.5095 14.8238 23.4664C14.7813 23.4234 14.7476 23.3722 14.7247 23.316C14.7018 23.2598 14.6901 23.1995 14.6902 23.1387V16.2446C14.6402 15.8842 14.4629 15.5542 14.191 15.3154C13.919 15.0766 13.5708 14.9451 13.2105 14.9451C12.8501 14.9451 12.5019 15.0766 12.23 15.3154C11.958 15.5542 11.7807 15.8842 11.7307 16.2446V23.1387C11.7307 23.2614 11.6825 23.3791 11.5967 23.466C11.5109 23.5529 11.3945 23.6019 11.2729 23.6023H8.59488C6.35877 23.6023 4.54488 23.6222 4.54488 21.3654V13.3355H2.62052C1.66426 13.3355 1.35777 12.9131 1.26175 12.6607C1.16573 12.4083 1.10523 11.893 1.80105 11.2487L11.5097 2.23193C11.9821 1.82536 12.5825 1.60205 13.2032 1.60205C13.8239 1.60205 14.4243 1.82536 14.8967 2.23193L24.608 11.2487C25.3012 11.8943 25.2434 12.411 25.1473 12.6607C25.0513 12.9104 24.7435 13.3355 23.7886 13.3355H21.8681V21.3654C21.8734 23.6209 20.0582 23.6023 17.8247 23.6023Z" stroke="#A8A29E" stroke-width="1.5"/>
</svg>
