<svg width="19" height="27" viewBox="0 0 19 27" fill="none" xmlns="http://www.w3.org/2000/svg">
<path fill-rule="evenodd" clip-rule="evenodd" d="M1.26342 8.59129C1.26342 4.54422 4.54422 1.26342 8.59129 1.26342C12.6384 1.26342 15.9192 4.54422 15.9192 8.59129C15.9192 9.74931 15.718 10.7223 15.2516 11.6869C14.7803 12.6619 14.0234 13.6591 12.8659 14.8432L10.2924 17.4166L11.1858 18.31L13.7642 15.7316L13.7667 15.7291C14.9742 14.4943 15.8345 13.3842 16.3891 12.2368C16.9491 11.0784 17.1826 9.91333 17.1826 8.59129C17.1826 3.84645 13.3361 0 8.59129 0C3.84645 0 0 3.84645 0 8.59129C0 11.1019 1.07769 13.3616 2.79377 14.9316L7.19254 19.3304L5.2974 21.2255L6.68717 22.6153L5.0537 24.2488L2.03046 21.2255L4.86867 18.3873L3.9753 17.4939L0.243705 21.2255L5.0537 26.0355L8.47392 22.6153L7.08415 21.2255L8.08592 20.2238L13.8977 26.0355L18.7077 21.2255L15.2874 17.8053L13.8977 19.1951L12.7019 17.9993L11.8085 18.8927L13.8977 20.9818L15.2874 19.5921L16.9209 21.2255L13.8977 24.2488L3.70436 14.0555L3.7062 14.0534C3.69293 14.0415 3.67969 14.0296 3.66651 14.0176L3.60525 13.9564L3.60266 13.9589C2.16279 12.6201 1.26342 10.7111 1.26342 8.59129Z" fill="#A8A29E"/>
<path fill-rule="evenodd" clip-rule="evenodd" d="M8.71765 10.2337C9.55497 10.2337 10.2338 9.55496 10.2338 8.71763C10.2338 7.88031 9.55497 7.20152 8.71765 7.20152C7.88032 7.20152 7.20154 7.88031 7.20154 8.71763C7.20154 9.55496 7.88032 10.2337 8.71765 10.2337ZM8.71765 11.4972C10.2527 11.4972 11.4972 10.2527 11.4972 8.71763C11.4972 7.18254 10.2527 5.9381 8.71765 5.9381C7.18255 5.9381 5.93811 7.18254 5.93811 8.71763C5.93811 10.2527 7.18255 11.4972 8.71765 11.4972Z" fill="#A8A29E"/>
</svg>
