<svg width="20" height="25" viewBox="0 0 20 25" fill="none" xmlns="http://www.w3.org/2000/svg">
<path d="M15.1635 6.4523C15.1632 7.49217 14.8545 8.50859 14.2766 9.37307C13.6987 10.2376 12.8774 10.9113 11.9166 11.309C10.9558 11.7068 9.89865 11.8107 8.87879 11.6076C7.85894 11.4046 6.92219 10.9037 6.18699 10.1683C5.45178 9.43289 4.95116 8.49602 4.74839 7.47611C4.54563 6.4562 4.64983 5.39906 5.04784 4.43837C5.44585 3.47768 6.11978 2.65658 6.98442 2.07889C7.84907 1.50119 8.86559 1.19287 9.90546 1.19287C10.5961 1.19287 11.2799 1.32889 11.9179 1.59321C12.556 1.85754 13.1357 2.24498 13.6239 2.73338C14.1122 3.22178 14.4995 3.80159 14.7636 4.43969C15.0278 5.07778 15.1636 5.76169 15.1635 6.4523Z" stroke="#A8A29E" stroke-width="1.5" stroke-linecap="round" stroke-linejoin="round"/>
<path d="M1.20459 24.0114C1.38835 21.8304 2.38454 19.7981 3.99582 18.3169C5.60709 16.8356 7.71592 16.0136 9.90458 16.0136C12.0932 16.0136 14.2021 16.8356 15.8134 18.3169C17.4246 19.7981 18.4208 21.8304 18.6046 24.0114" stroke="#A8A29E" stroke-width="1.5" stroke-linecap="round" stroke-linejoin="round"/>
</svg>
