<svg width="75" height="104" viewBox="0 0 75 104" fill="none" xmlns="http://www.w3.org/2000/svg">
<path fill-rule="evenodd" clip-rule="evenodd" d="M5 34C5 17.9837 17.9837 5 34 5C50.0162 5 63 17.9837 63 34C63 38.5829 62.2038 42.4334 60.3583 46.251C58.4932 50.1093 55.4977 54.056 50.9166 58.742L40.7322 68.9263L44.2678 72.4619L54.4717 62.2579L54.4815 62.2479C59.2603 57.361 62.6648 52.968 64.8599 48.4271C67.076 43.8428 68 39.232 68 34C68 15.2223 52.7777 0 34 0C15.2223 0 0 15.2223 0 34C0 43.9358 4.26497 52.8787 11.0563 59.0919L28.4645 76.5L20.9645 84L26.4645 89.5L20 95.9645L8.03553 84L19.2678 72.7678L15.7322 69.2322L0.964461 84L20 103.036L33.5355 89.5L28.0355 84L32 80.0355L55 103.036L74.0355 84L60.5 70.4645L55 75.9645L50.2678 71.2322L46.7322 74.7678L55 83.0355L60.5 77.5355L66.9645 84L55 95.9645L14.66 55.6244L14.6673 55.6163C14.6147 55.5693 14.5624 55.522 14.5102 55.4746L14.2678 55.2322L14.2575 55.2425C8.55924 49.9441 5 42.3893 5 34Z" fill="#F43F5E"/>
<path fill-rule="evenodd" clip-rule="evenodd" d="M34.5 40.5C37.8137 40.5 40.5 37.8137 40.5 34.5C40.5 31.1863 37.8137 28.5 34.5 28.5C31.1863 28.5 28.5 31.1863 28.5 34.5C28.5 37.8137 31.1863 40.5 34.5 40.5ZM34.5 45.5C40.5751 45.5 45.5 40.5751 45.5 34.5C45.5 28.4249 40.5751 23.5 34.5 23.5C28.4249 23.5 23.5 28.4249 23.5 34.5C23.5 40.5751 28.4249 45.5 34.5 45.5Z" fill="#F43F5E"/>
</svg>
