<svg width="14" height="14" viewBox="0 0 14 14" fill="none" xmlns="http://www.w3.org/2000/svg">
<g clip-path="url(#clip0_3_472)">
<path d="M4.8125 0H9.1875L9.40625 0.21875L9.73438 1.3125L10.2812 1.85938L11.375 2.1875L11.7031 2.625L11.5938 3.17188L11.1562 3.5L11.7031 4.04688L13.0156 4.48438L13.125 5.25L12.7969 5.57812H11.7031V8.42188L12.25 8.53125L12.3594 8.64062V9.95312H1.64062V8.64062L1.96875 8.42188H2.29688V5.57812H1.20312L0.875 5.25L0.984375 4.48438L2.29688 4.04688L2.84375 3.5L2.29688 2.95312L2.40625 2.40625L2.625 2.1875L3.71875 1.85938L4.26562 1.3125L4.59375 0.21875L4.8125 0ZM3.5 5.57812V8.42188H4.59375V5.57812H3.5ZM5.79688 5.57812V8.42188H8.20312V5.57812H5.79688ZM9.40625 5.57812V8.42188H10.5V5.57812H9.40625Z" fill="#F97316"/>
<path d="M1.09375 11.0469H12.9062L13.125 11.2656V13.7812L12.9062 14H1.09375L0.875 13.7812V11.2656L1.09375 11.0469Z" fill="#F97316"/>
</g>
<defs>
<clipPath id="clip0_3_472">
<rect width="14" height="14" fill="white"/>
</clipPath>
</defs>
</svg>
