<svg width="25" height="23" viewBox="0 0 25 23" fill="none" xmlns="http://www.w3.org/2000/svg">
<path d="M16.8247 22.6023H14.148C14.0878 22.6023 14.0281 22.5903 13.9725 22.567C13.9169 22.5436 13.8664 22.5095 13.8238 22.4664C13.7813 22.4234 13.7476 22.3722 13.7247 22.316C13.7018 22.2598 13.6901 22.1995 13.6902 22.1387V15.2446C13.6402 14.8842 13.4629 14.5542 13.191 14.3154C12.919 14.0766 12.5708 13.9451 12.2105 13.9451C11.8501 13.9451 11.5019 14.0766 11.23 14.3154C10.958 14.5542 10.7807 14.8842 10.7307 15.2446V22.1387C10.7307 22.2614 10.6825 22.3791 10.5967 22.466C10.5109 22.5529 10.3945 22.6019 10.2729 22.6023H7.59488C5.35877 22.6023 3.54488 22.6222 3.54488 20.3654V12.3355H1.62052C0.664257 12.3355 0.357773 11.9131 0.261752 11.6607C0.165731 11.4083 0.105229 10.893 0.801053 10.2487L10.5097 1.23193C10.9821 0.825358 11.5825 0.602051 12.2032 0.602051C12.8239 0.602051 13.4243 0.825358 13.8967 1.23193L23.608 10.2487C24.3012 10.8943 24.2434 11.411 24.1473 11.6607C24.0513 11.9104 23.7435 12.3355 22.7886 12.3355H20.8681V20.3654C20.8734 22.6209 19.0582 22.6023 16.8247 22.6023Z" fill="#F43F5E"/>
</svg>
