<svg width="20" height="24" viewBox="0 0 20 24" fill="none" xmlns="http://www.w3.org/2000/svg">
<path fill-rule="evenodd" clip-rule="evenodd" d="M9.70087 0.25C8.51268 0.25 7.35116 0.602301 6.36318 1.2624C5.3752 1.92249 4.60514 2.86072 4.15036 3.95844C3.69558 5.05617 3.57651 6.26409 3.8082 7.42948C4.03988 8.59488 4.61193 9.66538 5.45199 10.5057C6.29206 11.346 7.36243 11.9183 8.52776 12.1503C9.69308 12.3823 10.901 12.2636 11.9989 11.8091C13.0967 11.3546 14.0352 10.5848 14.6955 9.59703C15.3559 8.60924 15.7085 7.44784 15.7089 6.25963C15.7091 5.47052 15.5538 4.68906 15.252 3.95994C14.9502 3.23083 14.5077 2.56832 13.9497 2.01025C13.3918 1.45218 12.7294 1.00949 12.0004 0.707454C11.2713 0.405412 10.49 0.25 9.70087 0.25ZM18.9381 23.3409C19.0839 23.1906 19.1663 22.9805 19.1473 22.7555C18.9478 20.3873 17.866 18.1803 16.1163 16.5719C14.3666 14.9634 12.0766 14.0707 9.69998 14.0707C7.3233 14.0707 5.03332 14.9634 3.28363 16.5719C1.53394 18.1803 0.452178 20.3873 0.25263 22.7555C0.224266 23.0922 0.422837 23.3956 0.720951 23.5149C0.802751 23.5699 0.899758 23.6 1 23.6H18.5C18.6433 23.6 18.7797 23.5385 18.8746 23.4312C18.8993 23.4033 18.9205 23.373 18.9381 23.3409Z" fill="#F43F5E"/>
</svg>
