<svg width="14" height="14" viewBox="0 0 14 14" fill="none" xmlns="http://www.w3.org/2000/svg">
<g clip-path="url(#clip0_3_464)">
<path d="M0.984375 3.5H3.17188L3.28125 3.60938V4.26562L3.0625 4.375L1.42188 4.48438L0.984375 4.92188L1.09375 5.57812L1.42188 5.79688H2.84375L3.71875 5.46875H7.65625L10.6094 6.5625L10.8281 6.67188L10.7188 7.76562L10.5 8.85938L10.3906 13.3438L10.0625 13.6719H8.09375L7.76562 13.3438V10.0625L5.79688 9.95312L4.15625 9.73438V13.3438L4.04688 13.5625H1.75L1.64062 13.4531V7.21875L1.85938 6.78125H0.984375L0.328125 6.34375L0 5.79688V4.48438L0.4375 3.82812L0.984375 3.5Z" fill="#D946EF"/>
<path d="M9.625 0.328125L10.0625 0.4375L10.2812 0.765625L10.5 1.85938L11.7031 1.96875L12.25 2.51562L12.3594 3.0625H13.8906L14 3.17188V4.15625L13.6719 4.8125L13.0156 5.35938L12.5781 5.57812H11.0469V6.01562L9.95312 5.6875L7.875 4.92188L7.76562 4.70312L9.29688 0.546875L9.625 0.328125Z" fill="#D946EF"/>
</g>
<defs>
<clipPath id="clip0_3_464">
<rect width="14" height="14" fill="white"/>
</clipPath>
</defs>
</svg>
