<svg width="79" height="68" viewBox="0 0 79 68" fill="none" xmlns="http://www.w3.org/2000/svg">
<path d="M3.32617 44.4644C4.76758 44.4644 5.83984 45.6539 6.05664 47.5699H7.9082V43.7144H9.38477V54.4019H7.9082V48.7652H6.06836C5.91016 50.816 4.81445 52.0699 3.32617 52.0699C1.70898 52.0699 0.548828 50.605 0.560547 48.2613C0.548828 45.941 1.70898 44.4644 3.32617 44.4644ZM3.32617 45.8121C2.5293 45.8121 1.97852 46.6793 1.99023 48.2613C1.97852 49.855 2.5293 50.7105 3.32617 50.7105C4.13477 50.7105 4.66211 49.855 4.66211 48.2613C4.66211 46.6793 4.13477 45.8121 3.32617 45.8121ZM19.8574 47.5113V48.6832H12.4863V44.2769H19.752V45.4722H14.0215V47.5113H19.8574ZM21.0059 49.7613V50.9449H16.834V54.3668H15.3574V50.9449H11.2441V49.7613H21.0059ZM31.877 48.9058V50.1011H27.834V51.9527H26.3223V50.1011H22.1152V48.9058H31.877ZM30.7988 52.9839V54.191H23.2754V51.0035H24.7871V52.9839H30.7988ZM26.9902 43.9136C29.2988 43.9254 30.834 44.7808 30.8457 46.1285C30.834 47.4879 29.2988 48.3316 26.9902 48.3316C24.6699 48.3316 23.123 47.4879 23.123 46.1285C23.123 44.7808 24.6699 43.9254 26.9902 43.9136ZM26.9902 45.0972C25.6074 45.0972 24.7285 45.4488 24.7402 46.1285C24.7285 46.7847 25.6074 47.1363 26.9902 47.1363C28.3613 47.1363 29.2402 46.7847 29.2402 46.1285C29.2402 45.4488 28.3613 45.0972 26.9902 45.0972ZM37.9746 44.6636V47.066H39.4277V44.6636H40.8105V51.8472H36.5684V44.6636H37.9746ZM37.9746 50.6519H39.4277V48.2379H37.9746V50.6519ZM45.5098 43.7144V54.3785H44.0801V48.9996H43.1191V53.8863H41.7012V43.8668H43.1191V47.7808H44.0801V43.7144H45.5098ZM56.123 43.7261V49.8668H54.6348V48.8238H52.2324V47.6285H54.6348V46.6089H52.3379C51.6758 48.2964 50.1641 49.4566 47.8145 50.1011L47.2285 48.9175C49.6836 48.273 50.8848 47.1011 51.0957 45.6363H47.8027V44.441H52.7246C52.7246 44.7867 52.7012 45.1207 52.6543 45.4371H54.6348V43.7261H56.123ZM52.5723 49.9957C54.7402 49.9957 56.1934 50.8277 56.2051 52.1519C56.1934 53.4879 54.7402 54.3316 52.5723 54.3316C50.3809 54.3316 48.916 53.4879 48.9277 52.1519C48.916 50.8277 50.3809 49.9957 52.5723 49.9957ZM52.5723 51.1675C51.2246 51.1558 50.416 51.4957 50.416 52.1519C50.416 52.8082 51.2246 53.148 52.5723 53.148C53.8965 53.148 54.7051 52.8082 54.7051 52.1519C54.7051 51.4957 53.8965 51.1558 52.5723 51.1675ZM67.252 43.7144V54.3785H65.8223V43.7144H67.252ZM65.0254 43.8668V53.8863H63.6191V48.8472H62.7637C62.623 50.9449 61.7324 52.2105 60.4199 52.2105C59.0137 52.2105 58.0996 50.7339 58.0996 48.3316C58.0996 45.941 59.0137 44.4761 60.4199 44.4761C61.7031 44.4761 62.582 45.6714 62.752 47.6636H63.6191V43.8668H65.0254ZM60.4199 45.8824C59.8223 45.8824 59.4707 46.7027 59.4824 48.3316C59.4707 49.9722 59.8223 50.7808 60.4199 50.7691C61.0293 50.7808 61.3926 49.9722 61.3926 48.3316C61.3926 46.7027 61.0293 45.8824 60.4199 45.8824ZM72.9082 46.1285C72.9082 48.1324 73.7168 50.0777 75.498 50.8511L74.584 52.0464C73.4004 51.4664 72.6094 50.4058 72.1699 49.0933C71.7012 50.4879 70.8809 51.6304 69.6621 52.2339L68.7246 51.0152C70.5527 50.1949 71.3848 48.1324 71.3965 46.1285V44.5347H72.9082V46.1285ZM77.877 43.7144V54.4019H76.4004V48.273H74.3027V47.066H76.4004V43.7144H77.877ZM19.0293 56.4527V57.5425H16.9551C17.0723 58.0992 17.8809 58.5621 19.2754 58.691L18.7832 59.7691C17.5293 59.6168 16.6562 59.1773 16.2051 58.5621C15.7363 59.2125 14.8457 59.6812 13.5684 59.8511L13.0762 58.7847C14.5 58.6324 15.3086 58.1226 15.4316 57.5425H13.3457V56.4527H15.4551V55.6793H16.9316V56.4527H19.0293ZM16.9316 59.4527V60.273C17.7695 60.232 18.6016 60.1675 19.3809 60.0738L19.4863 61.0816C17.2832 61.4332 14.8691 61.4566 13.0176 61.4566L12.8652 60.3433C13.6445 60.3433 14.5352 60.3433 15.4551 60.3199V59.4527H16.9316ZM21.4199 61.9722V64.6089H15.7012V65.2066H21.7715V66.3082H14.2012V63.6011H19.9199V63.0504H14.1895V61.9722H21.4199ZM21.4199 55.7144V57.9879H22.7793V59.2066H21.4199V61.5738H19.9199V55.7144H21.4199ZM26.7363 56.2886C27.5859 56.2886 28.3301 56.5992 28.8457 57.1207H31.2598V55.7144H32.748V61.9605H31.2598V60.6832H28.834C28.3184 61.1988 27.5801 61.5093 26.7363 61.5035C25.1191 61.5152 23.8887 60.4019 23.9004 58.9019C23.8887 57.3785 25.1191 56.2886 26.7363 56.2886ZM26.7363 57.566C25.9043 57.566 25.3066 58.0582 25.3184 58.9019C25.3066 59.7222 25.9043 60.2496 26.7363 60.2379C27.5449 60.2496 28.1309 59.7222 28.1309 58.9019C28.1309 58.0582 27.5449 57.566 26.7363 57.566ZM29.1035 62.1832C31.3652 62.1832 32.7715 62.9566 32.7832 64.2808C32.7715 65.605 31.3652 66.3785 29.1035 66.3785C26.8535 66.3785 25.4355 65.605 25.4355 64.2808C25.4355 62.9566 26.8535 62.1832 29.1035 62.1832ZM29.1035 63.3199C27.6855 63.3199 26.9004 63.6363 26.9004 64.2808C26.9004 64.9019 27.6855 65.2183 29.1035 65.2183C30.5449 65.2183 31.3184 64.9019 31.3184 64.2808C31.3184 63.6363 30.5449 63.3199 29.1035 63.3199ZM29.4902 58.3043C29.5254 58.4918 29.5488 58.6968 29.5488 58.9019C29.5488 59.107 29.5254 59.3004 29.4902 59.4879H31.2598V58.3043H29.4902ZM43.0449 55.7144V59.8863H44.6152V61.1168H43.0449V66.3785H41.5684V55.7144H43.0449ZM40.8418 57.3082V58.5035H34.5723V57.3082H36.9863V55.8785H38.4863V57.3082H40.8418ZM37.7363 59.1011C39.2949 59.1011 40.4551 60.1558 40.4551 61.6441C40.4551 63.1324 39.2949 64.1871 37.7363 64.1871C36.166 64.1871 35.0059 63.1324 35.0059 61.6441C35.0059 60.1558 36.166 59.1011 37.7363 59.1011ZM37.7363 60.3082C36.9863 60.3199 36.4355 60.8238 36.4355 61.6441C36.4355 62.4761 36.9863 62.9683 37.7363 62.9566C38.4863 62.9683 39.0254 62.4761 39.0254 61.6441C39.0254 60.8238 38.4863 60.3199 37.7363 60.3082ZM48.9238 58.398C48.9238 60.1207 49.4043 61.9019 50.8574 62.8394L50.0488 63.9996C49.1289 63.4429 48.543 62.5289 48.209 61.4332C47.8223 62.6402 47.1836 63.648 46.2168 64.2339L45.3027 63.1324C46.8848 62.148 47.4707 60.273 47.4707 58.4683V56.6285H48.9238V58.398ZM54.748 55.7144V66.3785H53.3184V55.7144H54.748ZM52.5098 55.8668V65.8863H51.1152V60.5308H49.7324V59.3121H51.1152V55.8668H52.5098ZM66.1348 63.9058V65.1363H56.373V63.9058H58.5527V61.2925C57.7266 60.8004 57.2285 60.0445 57.2285 59.1011C57.2285 57.3785 58.916 56.23 61.2363 56.23C63.5449 56.23 65.2441 57.3785 65.2559 59.1011C65.25 60.0211 64.7637 60.7711 63.9668 61.2691V63.9058H66.1348ZM61.2363 57.4136C59.7129 57.4136 58.7051 58.023 58.7051 59.1011C58.7051 60.1441 59.7129 60.7886 61.2363 60.7886C62.748 60.7886 63.7676 60.1441 63.7793 59.1011C63.7676 58.023 62.748 57.4136 61.2363 57.4136ZM60.0293 63.9058H62.4551V61.8316C62.0742 61.9078 61.6641 61.9488 61.2363 61.9488C60.8086 61.9488 60.4043 61.9136 60.0293 61.8316V63.9058Z" fill="white"/>
<path fill-rule="evenodd" clip-rule="evenodd" d="M55.8449 38.1453L45.8082 38.1453L45.8082 35.8947L53.5944 35.8947L53.5944 28.1086L55.8449 28.1086L55.8449 38.1453Z" fill="white"/>
<path fill-rule="evenodd" clip-rule="evenodd" d="M23.0183 38.1453L33.055 38.1453L33.055 35.8947L25.2689 35.8947L25.2689 28.1086L23.0183 28.1086L23.0183 38.1453Z" fill="white"/>
<path fill-rule="evenodd" clip-rule="evenodd" d="M23.0183 5.31869L33.055 5.31869L33.055 7.56926L25.2689 7.56925L25.2689 15.3554L23.0183 15.3554L23.0183 5.31869Z" fill="white"/>
<path fill-rule="evenodd" clip-rule="evenodd" d="M55.8449 5.31869L45.8082 5.31869L45.8082 7.56925L53.5944 7.56925L53.5944 15.3554L55.8449 15.3554L55.8449 5.31869Z" fill="white"/>
<rect x="29" y="11.3004" width="21" height="21" fill="#D9D9D9"/>
</svg>
