<svg width="54" height="62" viewBox="0 0 54 62" fill="none" xmlns="http://www.w3.org/2000/svg">
<path d="M13.1094 37.4417V43.5588H11.6211V37.4417H13.1094ZM13.2969 44.1565V45.2932H10.332C10.5371 45.9963 11.6562 46.7815 13.707 46.9573L13.2031 48.0706C11.416 47.9065 10.1621 47.2737 9.51172 46.4417C8.86719 47.2913 7.5957 47.9124 5.79688 48.0706L5.29297 46.969C7.37305 46.7991 8.49219 46.0198 8.70312 45.2932H5.72656V44.1565H8.76172V43.2893H10.2617V44.1565H13.2969ZM6.20703 37.8635V39.2112H8.44531V37.8635H9.93359V42.7268H4.73047V37.8635H6.20703ZM6.20703 41.5432H8.44531V40.3479H6.20703V41.5432ZM26.7891 37.4534V40.4534H28.2305V41.6838H26.7891V45.3049H25.2891V37.4534H26.7891ZM27.1758 46.7229V47.9182H19.875V44.4963H21.3633V46.7229H27.1758ZM20.1328 38.2034V39.7502H22.3125V38.2034H23.8125V43.6057H18.6445V38.2034H20.1328ZM20.1328 42.4338H22.3125V40.8987H20.1328V42.4338ZM33.125 39.8557C33.1133 41.7659 33.9336 43.6995 35.6445 44.5198L34.7422 45.7151C33.5996 45.1526 32.832 44.0979 32.3867 42.8088C31.9238 44.1917 31.0977 45.3225 29.8906 45.9143L28.9648 44.7073C30.7695 43.8752 31.625 41.8362 31.625 39.8557V38.262H33.125V39.8557ZM37.6133 37.4417V41.5549H39.1836V42.8206H37.6133V48.1057H36.1133V37.4417H37.6133ZM49.3164 37.4417V48.1057H47.8867V37.4417H49.3164ZM47.0898 37.594V47.6135H45.6836V42.5745H44.8281C44.6875 44.6721 43.7969 45.9377 42.4844 45.9377C41.0781 45.9377 40.1641 44.4612 40.1641 42.0588C40.1641 39.6682 41.0781 38.2034 42.4844 38.2034C43.7676 38.2034 44.6465 39.3987 44.8164 41.3909H45.6836V37.594H47.0898ZM42.4844 39.6096C41.8867 39.6096 41.5352 40.4299 41.5469 42.0588C41.5352 43.6995 41.8867 44.5081 42.4844 44.4963C43.0938 44.5081 43.457 43.6995 43.457 42.0588C43.457 40.4299 43.0938 39.6096 42.4844 39.6096ZM10.1152 55.3245V56.5198H5.9668V60.1057H4.49023V56.5198H0.388672V55.3245H10.1152ZM9.24805 50.0042V51.176H6.14258C6.28906 52.219 7.4668 53.2678 9.6582 53.5315L9.11914 54.7034C7.24414 54.4514 5.90234 53.6487 5.26367 52.5471C4.60742 53.6487 3.27734 54.4514 1.41992 54.7034L0.869141 53.5315C3.02539 53.2678 4.21484 52.219 4.38477 51.176H1.26758V50.0042H9.24805ZM14.7168 50.1565C16.4043 50.1448 17.6699 51.2463 17.6699 52.7698C17.6699 54.3049 16.4043 55.3948 14.7168 55.3948C13.0293 55.3948 11.752 54.3049 11.752 52.7698C11.752 51.2463 13.0293 50.1448 14.7168 50.1565ZM14.7168 51.4456C13.873 51.4456 13.2285 51.9377 13.2402 52.7698C13.2285 53.6135 13.873 54.094 14.7168 54.094C15.5605 54.094 16.2051 53.6135 16.2168 52.7698C16.2051 51.9377 15.5723 51.4456 14.7168 51.4456ZM20.2246 49.4417V60.1292H18.7363V49.4417H20.2246ZM11.3066 56.7307C13.2051 56.7424 15.8418 56.7073 18.127 56.3909L18.2441 57.469C15.877 57.926 13.3457 57.9495 11.4824 57.9495L11.3066 56.7307ZM30.5449 49.4417V53.6135H32.1152V54.844H30.5449V60.1057H29.0684V49.4417H30.5449ZM28.3418 51.0354V52.2307H22.0723V51.0354H24.4863V49.6057H25.9863V51.0354H28.3418ZM25.2363 52.8284C26.7949 52.8284 27.9551 53.8831 27.9551 55.3713C27.9551 56.8596 26.7949 57.9143 25.2363 57.9143C23.666 57.9143 22.5059 56.8596 22.5059 55.3713C22.5059 53.8831 23.666 52.8284 25.2363 52.8284ZM25.2363 54.0354C24.4863 54.0471 23.9355 54.551 23.9355 55.3713C23.9355 56.2034 24.4863 56.6956 25.2363 56.6838C25.9863 56.6956 26.5254 56.2034 26.5254 55.3713C26.5254 54.551 25.9863 54.0471 25.2363 54.0354ZM36.4238 52.1252C36.4238 53.8479 36.9043 55.6292 38.3574 56.5667L37.5488 57.7268C36.6289 57.1702 36.043 56.2561 35.709 55.1604C35.3223 56.3674 34.6836 57.3752 33.7168 57.9612L32.8027 56.8596C34.3848 55.8752 34.9707 54.0002 34.9707 52.1956V50.3557H36.4238V52.1252ZM42.248 49.4417V60.1057H40.8184V49.4417H42.248ZM40.0098 49.594V59.6135H38.6152V54.2581H37.2324V53.0393H38.6152V49.594H40.0098ZM53.6348 57.6331V58.8635H43.873V57.6331H46.0527V55.0198C45.2266 54.5276 44.7285 53.7717 44.7285 52.8284C44.7285 51.1057 46.416 49.9573 48.7363 49.9573C51.0449 49.9573 52.7441 51.1057 52.7559 52.8284C52.75 53.7483 52.2637 54.4983 51.4668 54.9963V57.6331H53.6348ZM48.7363 51.1409C47.2129 51.1409 46.2051 51.7502 46.2051 52.8284C46.2051 53.8713 47.2129 54.5159 48.7363 54.5159C50.248 54.5159 51.2676 53.8713 51.2793 52.8284C51.2676 51.7502 50.248 51.1409 48.7363 51.1409ZM47.5293 57.6331H49.9551V55.5588C49.5742 55.635 49.1641 55.676 48.7363 55.676C48.3086 55.676 47.9043 55.6409 47.5293 55.5588V57.6331Z" fill="white"/>
<path fill-rule="evenodd" clip-rule="evenodd" d="M31.9154 16.4802L15.2101 0.300354L13.3127 2.49479L32.1812 20.7698L39.2553 11.9012L39.6647 17.0308C39.7274 17.8168 40.3924 18.4498 41.2019 18.3774C42.0069 18.3055 42.5576 17.5704 42.4951 16.7874L41.7982 8.05436C41.7355 7.26836 41.0706 6.63538 40.2611 6.70774L32.0099 7.44531C31.2048 7.51727 30.6541 8.25233 30.7166 9.03538C30.7793 9.82138 31.4443 10.4544 32.2537 10.382L37.1272 9.94637L31.9154 16.4802Z" fill="white"/>
<path fill-rule="evenodd" clip-rule="evenodd" d="M45 27.0276H8V24.0276H45V27.0276Z" fill="white"/>
</svg>
