<svg width="54" height="84" viewBox="0 0 54 84" fill="none" xmlns="http://www.w3.org/2000/svg">
<path d="M14.6816 62.398C14.6816 64.1207 15.1621 65.9019 16.6152 66.8394L15.8066 67.9996C14.8867 67.4429 14.3008 66.5289 13.9668 65.4332C13.5801 66.6402 12.9414 67.648 11.9746 68.2339L11.0605 67.1324C12.6426 66.148 13.2285 64.273 13.2285 62.4683V60.6285H14.6816V62.398ZM20.5059 59.7144V70.3785H19.0762V59.7144H20.5059ZM18.2676 59.8668V69.8863H16.873V64.5308H15.4902V63.3121H16.873V59.8668H18.2676ZM31.8926 67.9644V69.1949H22.1309V67.9644H26.2441V66.3589H23.2559V62.773H29.291V61.6011H23.2441V60.4058H30.7676V63.9449H24.7559V65.1402H31.0137V66.3589H27.7324V67.9644H31.8926ZM42.7637 67.9644V69.1949H33.002V67.9644H37.1152V66.3589H34.127V62.773H40.1621V61.6011H34.1152V60.4058H41.6387V63.9449H35.627V65.1402H41.8848V66.3589H38.6035V67.9644H42.7637ZM6.5293 72.4527V73.5425H4.45508C4.57227 74.0992 5.38086 74.5621 6.77539 74.691L6.2832 75.7691C5.0293 75.6168 4.15625 75.1773 3.70508 74.5621C3.23633 75.2125 2.3457 75.6812 1.06836 75.8511L0.576172 74.7847C2 74.6324 2.80859 74.1226 2.93164 73.5425H0.845703V72.4527H2.95508V71.6793H4.43164V72.4527H6.5293ZM4.43164 75.4527V76.273C5.26953 76.232 6.10156 76.1675 6.88086 76.0738L6.98633 77.0816C4.7832 77.4332 2.36914 77.4566 0.517578 77.4566L0.365234 76.3433C1.14453 76.3433 2.03516 76.3433 2.95508 76.3199V75.4527H4.43164ZM8.91992 77.9722V80.6089H3.20117V81.2066H9.27148V82.3082H1.70117V79.6011H7.41992V79.0504H1.68945V77.9722H8.91992ZM8.91992 71.7144V73.9879H10.2793V75.2066H8.91992V77.5738H7.41992V71.7144H8.91992ZM14.2363 72.2886C15.0859 72.2886 15.8301 72.5992 16.3457 73.1207H18.7598V71.7144H20.248V77.9605H18.7598V76.6832H16.334C15.8184 77.1988 15.0801 77.5093 14.2363 77.5035C12.6191 77.5152 11.3887 76.4019 11.4004 74.9019C11.3887 73.3785 12.6191 72.2886 14.2363 72.2886ZM14.2363 73.566C13.4043 73.566 12.8066 74.0582 12.8184 74.9019C12.8066 75.7222 13.4043 76.2496 14.2363 76.2379C15.0449 76.2496 15.6309 75.7222 15.6309 74.9019C15.6309 74.0582 15.0449 73.566 14.2363 73.566ZM16.6035 78.1832C18.8652 78.1832 20.2715 78.9566 20.2832 80.2808C20.2715 81.605 18.8652 82.3785 16.6035 82.3785C14.3535 82.3785 12.9355 81.605 12.9355 80.2808C12.9355 78.9566 14.3535 78.1832 16.6035 78.1832ZM16.6035 79.3199C15.1855 79.3199 14.4004 79.6363 14.4004 80.2808C14.4004 80.9019 15.1855 81.2183 16.6035 81.2183C18.0449 81.2183 18.8184 80.9019 18.8184 80.2808C18.8184 79.6363 18.0449 79.3199 16.6035 79.3199ZM16.9902 74.3043C17.0254 74.4918 17.0488 74.6968 17.0488 74.9019C17.0488 75.107 17.0254 75.3004 16.9902 75.4879H18.7598V74.3043H16.9902ZM30.5449 71.7144V75.8863H32.1152V77.1168H30.5449V82.3785H29.0684V71.7144H30.5449ZM28.3418 73.3082V74.5035H22.0723V73.3082H24.4863V71.8785H25.9863V73.3082H28.3418ZM25.2363 75.1011C26.7949 75.1011 27.9551 76.1558 27.9551 77.6441C27.9551 79.1324 26.7949 80.1871 25.2363 80.1871C23.666 80.1871 22.5059 79.1324 22.5059 77.6441C22.5059 76.1558 23.666 75.1011 25.2363 75.1011ZM25.2363 76.3082C24.4863 76.3199 23.9355 76.8238 23.9355 77.6441C23.9355 78.4761 24.4863 78.9683 25.2363 78.9566C25.9863 78.9683 26.5254 78.4761 26.5254 77.6441C26.5254 76.8238 25.9863 76.3199 25.2363 76.3082ZM36.4238 74.398C36.4238 76.1207 36.9043 77.9019 38.3574 78.8394L37.5488 79.9996C36.6289 79.4429 36.043 78.5289 35.709 77.4332C35.3223 78.6402 34.6836 79.648 33.7168 80.2339L32.8027 79.1324C34.3848 78.148 34.9707 76.273 34.9707 74.4683V72.6285H36.4238V74.398ZM42.248 71.7144V82.3785H40.8184V71.7144H42.248ZM40.0098 71.8668V81.8863H38.6152V76.5308H37.2324V75.3121H38.6152V71.8668H40.0098ZM53.6348 79.9058V81.1363H43.873V79.9058H46.0527V77.2925C45.2266 76.8004 44.7285 76.0445 44.7285 75.1011C44.7285 73.3785 46.416 72.23 48.7363 72.23C51.0449 72.23 52.7441 73.3785 52.7559 75.1011C52.75 76.0211 52.2637 76.7711 51.4668 77.2691V79.9058H53.6348ZM48.7363 73.4136C47.2129 73.4136 46.2051 74.023 46.2051 75.1011C46.2051 76.1441 47.2129 76.7886 48.7363 76.7886C50.248 76.7886 51.2676 76.1441 51.2793 75.1011C51.2676 74.023 50.248 73.4136 48.7363 73.4136ZM47.5293 79.9058H49.9551V77.8316C49.5742 77.9078 49.1641 77.9488 48.7363 77.9488C48.3086 77.9488 47.9043 77.9136 47.5293 77.8316V79.9058Z" fill="white"/>
<path fill-rule="evenodd" clip-rule="evenodd" d="M8.68945 6.68946L22.0683 6.68946L22.0683 9.68946H11.6894L11.6894 20.0684L8.68945 20.0684L8.68945 6.68946Z" fill="white"/>
<path fill-rule="evenodd" clip-rule="evenodd" d="M43.6846 52.6109L30.3057 52.6109L30.3057 49.6109H40.6846L40.6846 39.232L43.6846 39.232L43.6846 52.6109Z" fill="white"/>
</svg>
