<svg width="24" height="24" viewBox="0 0 24 24" fill="none" xmlns="http://www.w3.org/2000/svg">
<g clip-path="url(#clip0_3_490)">
<path d="M12.5625 2.05936C12.5625 1.22459 13.5249 0.757275 14.1809 1.27349L23.0312 8.23767C23.5304 8.63052 23.5416 9.38325 23.0542 9.79073L14.1351 17.2477C13.496 17.7821 12.522 17.3465 12.4942 16.5138L12.4143 14.116C12.3937 13.4989 11.8242 13.0477 11.2187 13.1688L9.6596 13.4806C9.59502 13.4935 9.53188 13.5128 9.4711 13.5381L7.40195 14.4002C7.34246 14.425 7.2855 14.4555 7.23187 14.4913L5.14489 15.8826C5.0901 15.9191 5.03905 15.961 4.99248 16.0075L3.63252 17.3675C3.58595 17.414 3.5441 17.4651 3.50757 17.5199L2.11196 19.6133C2.07905 19.6627 2.0506 19.7149 2.02694 19.7693L0.217106 23.9319C0.199128 23.9733 0.158336 24 0.113249 24V24C0.0507032 24 0 23.9493 0 23.8868V17.006C0 16.9191 0.0113508 16.8324 0.0337651 16.7484L0.723751 14.1609C0.741205 14.0955 0.765265 14.032 0.795559 13.9714L1.82762 11.9073C1.85912 11.8443 1.89718 11.7848 1.94118 11.7298L3.375 9.9375L4.79738 8.51512C4.84897 8.46353 4.90606 8.41774 4.96761 8.37857L6.9375 7.125L8.90874 6.22898C8.96943 6.2014 9.03272 6.17995 9.09768 6.16496L11.3265 5.65061C11.4003 5.63359 11.4768 5.625 11.5525 5.625V5.625C12.1048 5.625 12.5625 5.17728 12.5625 4.625V2.05936Z" fill="white"/>
</g>
<defs>
<clipPath id="clip0_3_490">
<rect width="24" height="24" fill="white"/>
</clipPath>
</defs>
</svg>
