<svg width="14" height="14" viewBox="0 0 14 14" fill="current" xmlns="http://www.w3.org/2000/svg">
<path d="M2.625 5.25L3.28125 5.46875L3.71875 5.57812L4.375 5.25L5.03125 5.57812L5.6875 5.25L6.34375 5.57812L6.89062 5.25L7.4375 5.46875L7.76562 5.57812L8.42188 5.25L9.07812 5.57812L9.73438 5.25L10.2812 5.57812L10.9375 5.35938L11.375 5.25L11.5938 5.46875V13.8906L11.4844 14H2.51562L2.40625 13.8906V5.46875L2.625 5.25ZM5.46875 11.4844L5.35938 12.0312L5.46875 12.1406H8.53125L8.64062 11.5938L8.53125 11.4844H5.46875Z" fill="#FBBF24"/>
<path d="M6.5625 0H7.4375L7.875 0.546875L8.3125 1.53125L8.53125 2.625V4.59375L7.875 4.92188L7.32812 4.8125L6.89062 4.70312L6.5625 4.92188H6.23438V4.04688L5.90625 2.95312L5.57812 2.51562L5.6875 1.53125L6.34375 0.21875L6.5625 0Z" fill="#FBBF24"/>
<path d="M3.71875 2.51562L4.70312 2.625L5.35938 3.17188L5.57812 3.71875V4.59375L5.25 4.92188L4.59375 4.8125L4.15625 4.70312L3.71875 5.03125L2.73438 4.70312L2.40625 4.59375V3.71875L2.73438 3.0625L3.28125 2.625L3.71875 2.51562Z" fill="#FBBF24"/>
<path d="M9.29688 2.07812L10.0625 2.1875L10.3906 2.51562V2.73438L11.1562 2.84375L11.5938 3.39062V4.04688L11.0469 4.59375L10.5 5.03125L9.95312 4.8125L9.51562 4.70312L9.29688 4.8125L9.1875 2.1875L9.29688 2.07812Z" fill="#FBBF24"/>
</svg>
