<svg width="135" height="188" viewBox="0 0 135 188" fill="none" xmlns="http://www.w3.org/2000/svg">
<path fill-rule="evenodd" clip-rule="evenodd" d="M9.1111 61.9555C9.1111 32.7703 32.7703 9.1111 61.9555 9.1111C91.1406 9.1111 114.8 32.7703 114.8 61.9555C114.8 70.3065 113.349 77.323 109.986 84.2795C106.587 91.3102 101.129 98.5019 92.7812 107.041L74.2231 125.599L80.6656 132.041L99.2595 113.448L99.2773 113.429C107.985 104.524 114.189 96.5194 118.189 88.2449C122.227 79.8912 123.911 71.4893 123.911 61.9555C123.911 27.7384 96.1725 0 61.9555 0C27.7384 0 0 27.7384 0 61.9555C0 80.0607 7.77172 96.3566 20.1471 107.678L51.8685 139.4L38.2019 153.066L48.2241 163.089L36.4444 174.868L14.6425 153.066L35.1101 132.599L28.6676 126.156L1.75746 153.066L36.4444 187.753L61.1091 163.089L51.0869 153.066L58.311 145.842L100.222 187.753L134.909 153.066L110.244 128.402L100.222 138.424L91.5989 129.801L85.1564 136.243L100.222 151.309L110.244 141.287L122.024 153.066L100.222 174.868L26.7137 101.36L26.727 101.345C26.6313 101.259 26.5359 101.173 26.4407 101.087L25.999 100.645L25.9804 100.664C15.5968 91.0091 9.1111 77.2426 9.1111 61.9555Z" fill="white"/>
<path fill-rule="evenodd" clip-rule="evenodd" d="M62.8666 73.7999C68.9049 73.7999 73.7999 68.9049 73.7999 62.8666C73.7999 56.8283 68.9049 51.9333 62.8666 51.9333C56.8283 51.9333 51.9333 56.8283 51.9333 62.8666C51.9333 68.9049 56.8283 73.7999 62.8666 73.7999ZM62.8666 82.911C73.9368 82.911 82.911 73.9368 82.911 62.8666C82.911 51.7964 73.9368 42.8222 62.8666 42.8222C51.7964 42.8222 42.8222 51.7964 42.8222 62.8666C42.8222 73.9368 51.7964 82.911 62.8666 82.911Z" fill="white"/>
</svg>
